/* XPM */
static const char *freeimage[] = {
/* width height num_colors chars_per_pixel */
"32 16 87 1",
/* colors */
"  c #ffffff",
". c #e9eff6",
"X c #7ca3cb",
"o c #4a81b8",
"O c #3e78b3",
"+ c #5185ba",
"@ c #81a7cd",
"# c #ecf1f7",
"$ c #f2f2f2",
"% c #dedede",
"& c #d5d5d5",
"* c #dddddd",
"= c #f1f1f1",
"- c #cfddec",
"; c #d3e0ee",
": c #e3e3e3",
"> c #dcdcdc",
", c #e0e0e0",
"< c #6090c0",
"1 c #dde8f2",
"2 c #f9fafc",
"3 c #e0e9f3",
"4 c #5f8fc0",
"5 c #f0f0f0",
"6 c #d8d8d8",
"7 c #fdfdfd",
"8 c #fefefe",
"9 c #dadada",
"0 c #ededed",
"q c #cadbec",
"w c #fcfdfe",
"e c #cddded",
"r c #d9d9d9",
"t c #adc7e2",
"y c #4b81b8",
"u c #aec8e2",
"i c #dbdbdb",
"p c #dfdfdf",
"a c #abc6e1",
"s c #4d83b9",
"d c #457eb6",
"f c #abc5e0",
"g c #e2e2e2",
"h c #b3cae1",
"j c #4a80b7",
"k c #b5cbe2",
"l c #3e79b4",
"z c #3d77b2",
"x c #3a75b1",
"c c #f9f9f9",
"v c #f8f8f8",
"b c #3974b1",
"n c #6b96c4",
"m c #3572af",
"M c #d4d4d4",
"N c #3370ae",
"B c #d2e0ed",
"V c #aec5de",
"C c #598bbf",
"Z c #a1bcd9",
"A c #7fa5cc",
"S c #3874b0",
"D c #6d9ac6",
"F c #89add2",
"G c #3975b1",
"H c #6391c1",
"J c #457db5",
"K c #3b76b2",
"L c #a0bddb",
"P c #d2d2d2",
"I c #efefef",
"U c #d5e2ef",
"Y c #3672b0",
"T c #9dbbd8",
"R c #7da3cb",
"E c #f3f6fa",
"W c #5588bc",
"Q c #84a8cd",
"! c #719bc6",
"~ c #7fa6cc",
"^ c #427bb4",
"/ c #3571af",
"( c #5286bb",
") c #a2beda",
"_ c #5d8dbf",
"` c #aec6df",
"' c #d6d6d6",
/* pixels */
"    .XoO+@#             $%&&*=  ",
"   -OOOOOOO;           :&&>>&&, ",
"   OO<1234OO          5&67  89&0",
"  qOO    wOOe         r&7     &6",
"  tOy     OOu         &i      p&",
"  aOs     dOf         &%      g&",
"  hOy     jOk         &>      ,&",
" lOOOOzxzOOOOO  &&&&&&&&&&&&  cv",
" lOOOzbnmzOOOO  &&&&M6rM&&&&    ",
" lOOONB VmOOOs  &&&&&  6&&&&    ",
" COOOmZ ASOOOD  &&&&&  6&&&&    ",
" FOOOGH JKOOOL  &&&&PI=P&&&&    ",
" UOOOYT RSOOOE  &&&&PvcP&&&&    ",
"  WOOSQh!GOO~   &&&&P  P&&&&    ",
"  2^OOS/GOO(    &&&&Mpp&&&&&    ",
"    )WOOO_`     '&&&&MM&&&&&    "
};
