/* XPM */
static const char *freeimage[] = {
/* width height num_colors chars_per_pixel */
"16 16 44 1",
/* colors */
"  c #ffffff",
". c #d2cfcb",
"X c #787878",
"o c #c8c4be",
"O c #fbfbfa",
"+ c #7a7a7a",
"@ c #bbb7b1",
"# c #797979",
"$ c #b4b4b4",
"% c #7b7b7b",
"& c #c9c8c5",
"* c #fdfcfb",
"= c #fdfdfc",
"- c #8b8a87",
"; c #f4e1c1",
": c #e9b665",
"> c #eab766",
", c #8e8e8c",
"< c #eecc97",
"1 c #999999",
"2 c #fefefd",
"3 c #ebbd75",
"4 c #b1b0af",
"5 c #f7f2e9",
"6 c #eabb6f",
"7 c #777777",
"8 c #f1e0c6",
"9 c #efca90",
"0 c #e0dedb",
"q c #eed1a2",
"w c #f4dbb4",
"e c #7b7b7a",
"r c #f2f1ef",
"t c #ecc27f",
"y c #f9ecd8",
"u c #8f8e8b",
"i c #f9f6f1",
"p c #e9b768",
"a c #e9b869",
"s c #fdfbf7",
"d c #bab8b4",
"f c #f7f1e6",
"g c #eab96b",
"h c #f0cc94",
/* pixels */
"                ",
"                ",
".XXXXXoO        ",
"+XXXXXX@        ",
"#XXXXXXXXXXXXX$ ",
"XXXXXXXXXXXXXXX ",
"X%&   ****=     ",
"X- ;:>>>>>::::::",
"X, <:>>>>>::::::",
"X123:>>>>>::::::",
"X45::>>>>>:::::6",
"7&8::::::::::::9",
"70q::::::::::::w",
"ert::::::::::::y",
"uip:::::::::::as",
"dfg>:>>>>>>>>>h "
};
