/* XPM */
static const char *freeimage[] = {
/* width height num_colors chars_per_pixel */
"96 16 98 2",
/* colors */
"   c #ffffff",
" . c #f3d6a9",
" X c #e8b058",
" o c #efca8f",
" O c #8cacce",
" + c #3c76b1",
" @ c #9bb7d4",
" # c #6995c3",
" $ c #3d77b2",
" % c #6693c2",
" & c #477eb6",
" * c #3e78b3",
" = c #467db6",
" - c #fdf7ed",
" ; c #f1cf9a",
" : c #3e78b2",
" > c #3d78b2",
" , c #eab96c",
" < c #6b6b6b",
" 1 c #f5deb8",
" 2 c #f5deba",
" 3 c #848180",
" 4 c #edc2b9",
" 5 c #df9283",
" 6 c #ededed",
" 7 c #fefefe",
" 8 c #fbfbfb",
" 9 c #949494",
" 0 c #696969",
" q c #d8e3ed",
" w c #5f8fc0",
" e c #d9e3ee",
" r c #fefdfc",
" t c #f7e5c8",
" y c #fafbfc",
" u c #686868",
" i c #e7ab9f",
" p c #e6a599",
" a c #dd8a7b",
" s c #fdfdfd",
" d c #6e6e6e",
" f c #818181",
" g c #edc380",
" h c #fbf1e2",
" j c #eaf0f6",
" k c #6e96c1",
" l c #f1cec8",
" z c #e09486",
" x c #f7f7f7",
" c c #f9f9f9",
" v c #f8e8ce",
" b c #e8b15b",
" n c #e8b35e",
" m c #f9e9d0",
" M c #b4c9df",
" N c #89a9cc",
" B c #efca8e",
" V c #e7ad50",
" C c #eab35e",
" Z c #e8b25d",
" A c #e9b35f",
" S c #fdf7ee",
" D c #fdfdfe",
" F c #427ab4",
" G c #3f78b3",
" H c #e5a742",
" J c #e8b35f",
" K c #ebbd74",
" L c #fdf8f1",
" P c #fefdfb",
" I c #f4d9ad",
" U c #f0ce98",
" Y c #608cba",
" T c #fcfdfd",
" R c #f6e1c0",
" E c #eec2ba",
" W c #d8e2ec",
" Q c #f1d09d",
" ! c #fbf2e3",
" ~ c #6a6a6a",
" ^ c #f3f3f3",
" / c #3d76b0",
" ( c #fefcf9",
" ) c #eab869",
" _ c #fefefd",
" ` c #b2dbca",
" ' c #8eb0d2",
" ] c #8daed1",
" [ c #efc88c",
" { c #eec687",
" } c #787878",
" | c #9d9d9d",
".  c #bebebe",
".. c #fdf6eb",
".X c #f4d9af",
".o c #4bad85",
".O c #eec07a",
".+ c #f9ebd6",
/* pixels */
"                                                                             . X X X X X X X X o       O + + + + + + + + + + + @ # $ $ $ $ $ $ $ $ $ $ $ $ $ $ % & * * * * * * * * * * * * * =  ",
"                                                                           - X X X X X X X X ;         + + + + + + + + + + + + + : $ $ $ $ $ $ > > > > $ $ $ $ $ * * * * * * * *     *     * *  ",
"                                                                           , X X X X X X X .           + + + + + + + + + + + + + $ $ $ $ $ > > > > > > $ $ $ $ $ : * * * * * * * * * * * * * *  ",
"       < < < < < < < < < <                                               1 X X X X X X X 2             + + + + + + + + + + + + + 3 4 4 4 5       6 7   6 7 8 7 9 0                           0  ",
"       < < < < < < < < < <       q w * * * * * * * * * * * * w e       r X X X X X X X t             y + + + + + + + + + + + + + u i p p a s d u u u u u u d 7 u 0                           f  ",
"                                 w * * * * * * * * * * * * * * w       g X X X X X X h                                   j k + + u l l l z 7 f   x c   x   f 7 u 0                              ",
"       < < < < < < < < < <       * * * * * * * * * * * * * * * *     v X X X X X X b n X X m     M + + + + + + + + + + + N j + + u i p p a 7     6 s   6     7 u 0                   B V V V V B",
"       < < < < < < < < < <       * * * * * * * * * * * * * * * *     C Z A Z X X X X X b S       + + + + + + + + + + + + +   + + u l l l z D F G G G G G     7 u 0                   H V     V V",
"                                 * * * * * * * * * * * * * * * *           J X X X X K           + + + + + + + + + + + + +   + + u i p p a D F G G G G G     7 u 0                   H V L P V V",
" $ $   < < < < < < < < < <   $ $ * * * * * * * * * * * * * * * *         I X X X X U             + + + + + + + + + + + + +   Y M u l l l z 7 T   6 7 s 6       u 0                   H V V V V V",
" $ $   < < < < < < < < < <   $ $ w * * * * * * * * * * * * * * w         X X X X R               + + + + + + + + + + + + +       u E E E 5   D   6 7 s 6       u 0                   B V V V V B",
" $ $                         $ $ W w * * * * * * * * * * * * w q       Q X X X !                 + + + + + + + + + + + + +       0 u u u u u u u u u u u u u u ~ 0 ^ ^ ^ ^ ^ ^ ^ ^ x s H H V    ",
" $ $ $ $ $ $ $ $ $ $ $ $ $ $ $ /                                     ( X X ) _                   + + + + + + + + + + + + +                     ` `               0 ^ ^ ^ ^ ^ ^ ^ ^ ^ c H H V V  ",
" ' $ $ $ $ $ $ $ $ $ $ $ $ $ $ ]                                     [ X {                       + + + + + + + + + + + + +                     } }               | 0 0 0 0 0 0 0 0 0.  H H V    ",
"                                                                  .. X.X                         + + + + + + + + + + + + +      .o.o.o.o ` } } } } } } `.o.o.o.o                         H V H  ",
"                                                                  .O.+                           @ + + + + + + + + + + + O      .o.o.o.o ` } } } } } } `.o.o.o.o                           V    "
};
