/* XPM */
static const char *freeimage[] = {
/* width height num_colors chars_per_pixel */
"32 32 2 1",
/* colors */
"  c #ffffff",
". c #3e78b3",
/* pixels */
"                                ",
"                                ",
"                                ",
"                                ",
"       .                .       ",
"      ...              ...      ",
"     .....            .....     ",
"    .......          .......    ",
"   .........        .........   ",
"  ...........      ...........  ",
" .............    ............. ",
" .............    ............. ",
" .............    ............. ",
" .... ... ....    .... ... .... ",
" ...  ...  ...    ...  ...  ... ",
" ..   ...   ..    ..   ...   .. ",
" .    ...    .    .    ...    . ",
"      ...              ...      ",
"      ...              ...      ",
"      ...              ...      ",
"      ...              ...      ",
"      ...              ...      ",
"      ...              ...      ",
"      ...              ...      ",
"      ...              ...      ",
"      ...              ...      ",
"      ...              ...      ",
"      ...              ...      ",
"      ...              ...      ",
"                                ",
"                                ",
"                                "
};
